[img]http://hostpicturefree.com/images/11hrh.gif[/img]

[b]Cover:[/b]

[img]http://ia.media-imdb.com/images/M/MV5BMTc4Njk3MDM1Nl5BMl5BanBnXkFtZTcwODgyOTMxOA@@._V1._SY317_.jpg[/img]

[b]Release info:[/b]

[code]General
Format                                   : Matroska
Format version                           : Version 2
File size                                : 715 MiB
Duration                                 : 2h 15mn
Overall bit rate                         : 741 Kbps

Video
ID                                       : 1
Format                                   : MPEG-4 Visual
Format profile                           : Advanced Simple@L5
Format settings, BVOP                    : Yes
Format settings, QPel                    : No
Format settings, GMC                     : No warppoints
Format settings, Matrix                  : Default (H.263)
Codec ID                                 : V_MS/VFW/FOURCC / XVID
Codec ID/Hint                            : XviD
Duration                                 : 2h 15mn
Bit rate                                 : 598 Kbps
Width                                    : 640 pixels
Height                                   : 272 pixels
Display aspect ratio                     : 2.35:1
Frame rate mode                          : Constant
Frame rate                               : 23.976 fps
Color space                              : YUV
Chroma subsampling                       : 4:2:0
Bit depth                                : 8 bits
Scan type                                : Progressive
Compression mode                         : Lossy
Bits/(Pixel*Frame)                       : 0.143
Stream size                              : 577 MiB (81%)
Writing library                          : XviD 64
Language                                 : English
Default                                  : Yes
Forced                                   : No

Audio
ID                                       : 2
Format                                   : MPEG Audio
Format version                           : Version 1
Format profile                           : Layer 3
Mode                                     : Joint stereo
Muxing mode                              : Header stripping
Codec ID                                 : A_MPEG/L3
Codec ID/Hint                            : MP3
Duration                                 : 2h 15mn
Bit rate mode                            : Constant
Bit rate                                 : 128 Kbps
Channel(s)                               : 2 channels
Sampling rate                            : 44.1 KHz
Compression mode                         : Lossy
Stream size                              : 124 MiB (17%)
Writing library                          : LAME3.98.2
Language                                 : English
Default                                  : Yes
Forced                                   : No



Source:
credit to original movie ripper NEUTRINO (Thanks)[/code]

[b]IMDB Info:[/b]

[code]An expansion of the universe from Robert Ludlum's novels, centered on a new hero whose stakes have been triggered by the events of the previous three films.

Director: Tony Gilroy
Writers: Tony Gilroy (screenplay), Dan Gilroy (screenplay)
Stars: Jeremy Renner, Rachel Weisz and Edward Norton

Genres: Action | Adventure | Mystery | Thriller
[/code]
 
http://www.imdb.com/title/tt1194173/

[b]Screen Shot:[/b]

[img]http://www.shotpix.com/images/46417937639828310012.png[/img]
[img]http://www.shotpix.com/images/82624002788629497863.png[/img]
[img]http://www.shotpix.com/images/70115434529816916603.png[/img]
[img]http://www.shotpix.com/images/31053672542082131318.png[/img]
[img]http://www.shotpix.com/images/37414279513033016119.png[/img]
[img]http://www.shotpix.com/images/16778606149464372640.png[/img]